<?xml version="1.0" standalone="no"?>
<!DOCTYPE svg PUBLIC "-//W3C//DTD SVG 20010904//EN"
 "http://www.w3.org/TR/2001/REC-SVG-20010904/DTD/svg10.dtd">
<svg version="1.0" xmlns="http://www.w3.org/2000/svg"
 width="225.000000pt" height="225.000000pt" viewBox="0 0 225.000000 225.000000"
 preserveAspectRatio="xMidYMid meet">

<g transform="translate(0.000000,225.000000) scale(0.100000,-0.100000)"
fill="#000000" stroke="none">
<path d="M940 2185 c-187 -42 -341 -125 -478 -259 -94 -91 -151 -171 -206
-287 -71 -150 -90 -237 -90 -414 0 -180 20 -276 89 -424 l46 -96 -86 -254
c-47 -140 -84 -256 -81 -258 2 -2 121 34 265 81 l262 84 64 -29 c36 -16 104
-41 152 -56 82 -25 101 -27 268 -27 167 0 186 2 268 27 347 107 593 361 685
707 34 131 36 333 4 463 -90 363 -354 634 -712 732 -89 24 -358 30 -450 10z
m413 -164 c42 -11 117 -41 166 -66 293 -151 465 -449 448 -775 -16 -303 -190
-567 -459 -700 -124 -60 -219 -82 -363 -82 -146 0 -239 22 -369 86 l-89 44
-155 -50 c-85 -27 -156 -48 -157 -46 -2 2 19 70 47 151 l51 148 -22 37 c-153
253 -174 544 -57 797 112 243 339 420 602 470 101 19 253 13 357 -14z"/>
<path d="M746 1669 c-19 -17 -47 -55 -62 -85 -34 -71 -37 -162 -6 -246 30 -83
139 -244 229 -339 117 -122 208 -179 383 -239 78 -27 103 -31 148 -26 65 8
141 44 175 86 25 29 43 98 35 135 -2 11 -48 41 -121 79 l-119 61 -61 -68 c-34
-37 -68 -67 -76 -67 -25 0 -144 71 -200 118 -56 48 -132 143 -159 198 -15 32
-14 33 32 89 25 31 46 64 46 72 0 28 -82 238 -98 251 -9 6 -37 12 -64 12 -39
0 -54 -6 -82 -31z"/>
</g>
</svg>
